/* XPM */
static char *bitcoin128[] = {
/* columns rows colors chars-per-pixel */
"128 128 70 1 ",
"  c None",
". c #479547",
"X c #47964A",
"o c #4A974A",
"O c #4D984B",
"+ c #5F9F47",
"@ c #529A49",
"# c #5A9D48",
"$ c #529B52",
"% c #589F58",
"& c #609F47",
"* c #5BA15B",
"= c #65A147",
"- c #6CA346",
"; c #73A645",
": c #78A744",
"> c #7BA944",
", c #63A563",
"< c #67A867",
"1 c #6CAA6C",
"2 c #71AD71",
"3 c #76B076",
"4 c #7AB27A",
"5 c #9EB53F",
"6 c #A2B73F",
"7 c #A7B83E",
"8 c #ACBA3D",
"9 c #B3BD3C",
"0 c #B9BF3C",
"q c #BDC03B",
"w c #C3C23A",
"e c #CAC539",
"r c #DCCB37",
"t c #D0C739",
"y c #D5C938",
"u c #D8CA38",
"i c #E4CE36",
"p c #EBD135",
"a c #F4D434",
"s c #F8D633",
"d c #83AB43",
"f c #8BAE42",
"g c #8FB041",
"h c #94B240",
"j c #99B440",
"k c #81B681",
"l c #85B985",
"z c #8CBD8C",
"x c #90BF90",
"c c #94C294",
"v c #9CC69C",
"b c #9FC89F",
"n c #A3CAA3",
"m c #AACEAA",
"M c #AED0AE",
"N c #B4D4B4",
"B c #B9D7B9",
"V c #BDD9BD",
"C c #C3DDC3",
"Z c #C8DFC8",
"A c #CBE1CB",
"S c #D1E5D1",
"D c #D7E8D7",
"F c #DBEADB",
"G c #E2EEE2",
"H c #E6F0E6",
"J c #ECF4EC",
"K c #F1F7F1",
"L c #F5F9F5",
"P c #FEFFFE",
/* pixels */
"     ooooooooooooOooooooooooooooooooooOoooooOoooooooooooooooooooooooooooooooooOXoooooooOXooooOXooooooooooOoooooooXoooooXooo     ",
"    oooooooooooooooooooooooooooooOooooooooooooooooooOXooooooooooOoooooOooooooooooOoooooooooooooooooooooooooooooooOoooooOooooo   ",
"  oooooooooooooooooooooooooooooooooooooooooooooooooooooooooooooooooooooooooooooooooooooooooooooooooooooooooooooooooooooooooooo  ",
"  oooooooooooooooooooOoooooooooooooooooooooooooooooooooooooooooooooooooooooooooooooooooooooooooooooooooooooooooooooooooooooooo  ",
" ooooooooooooooooooooooooooooooOooooooooooooooooooOoooooooOooooOoooooooooOooooooooooooooooooooooooooOoooooooooOoooooooooooooooo ",
" oooooooooooooooooooooooooooooooooooooooooooooooooooooooooXooooooooooooooooooooooooooooooooooooooXOoooooooooooXooooooooooooooooo",
"oooooooooooOoooooooooooooooooooooooOooooooooooooooooooooooooooooooOooooooooooooooooOooooooooOooooooooooooooooooooooooOoooooOoooo",
"oOooooooooooooooooooooooooooooooooooooooOXooooooooooooooooooooooooXooooooooooooooooooooooooooooooooooooooooooooooooooooooooooooo",
"ooooooooooooooooooooooooooooooooooOoooooooooooooooooooooooooooooooooooooooooOoooooOooooooooooOoooooooooooooooooooooooooooooooooo",
"oooooooooooooooooooooooooooooooOoooooooooooooooooooooooooooooooooooXooooooooooooooXooooooooooooooooooooooooooooooooooooooooooooo",
"ooooooooooooooooooooooooooooooooooooooooooooooooXOooooOooooOoooooooOoooooooooooooooooooooooooooooooooooooooooooooooooOoooooooooo",
"oooooooooooooooooooooooooooooooooooooooooooooooooooooooooooooooooooooooooooooooooooooooooooooooooooooXOooooooooooooooooooooOoooo",
"oooooooOooooOoooooooooooooooooooooooooooooooOoooooooooooooooOXooooooooOoooooooooooooooooOooooooooooooooooooooooOoXoooooooooooooo",
"ooooooooooooooooooooooooooooooooooooooooooooooooooooooooooooooooooooooooooooooOoooooooooXooooooooooOooooooooooooooooooooooooOXoo",
"ooooooooooooooooooOooOooooooooooooooooooooooooooooooooooooooooooooooooooooooooXoooooooooooooooooooooooooooOoooooooooOooooooooooo",
"ooooooooooooooooooooooooooooooooooooooooooOoooooooooooooooooooooooooooooooooooooOooooooooooooooooooooooooooooooooooooooooooooooo",
"oooooooooooOooooooooooooooooooooooooooooooooooooooooooooooooooooooooooooOXoooooooooOoooooooooooooooooooooooooooooooooooooooooooO",
"oooooooXooooooXooooooooooooooooooooooooooooooooooooooooooooooooooooooooooooooooooooooooooooooooooooooOoooooooooooOoooooOoooooooo",
"oooooooOoooooooooooooooooooooooooOooooooooooooooooooooooooooooooooOoooooooooooooooooooooooooOoooooooooooooooOooooooooooooooooooo",
"ooooooooooooooooooooooooooooooOoooooooooooooooooooooooooooooooooooooOoooooooooooooooooooooooXoooXOoooooooooooooooooooooooooooooo",
"oooooooooooooooooooooooooooooooooooooooooooooooooooooooooooooooOooooXooooooooooooooooooooooooooooooooooooXoooooooooooooXOooooooo",
"ooooooooooooooooooooooooooooooooooooooooooooooooOoooooooooooooooooooooooooooooooooooooXOooOooooooooooooooOoooooooooooooooooooooo",
"ooOoooooooooooooooooooooooooooooooooooooooOooooooooooooooooooooooooooooooooooooooooooooooooooooooooooooooooooooooooooooooooooooo",
"oooooooooOoooooOoooooooOoooooooooooooooooooooooooooooooOooooooooooooooooooOoooooooooooooooooooooooooooooooooOoooooOoooooooooooXo",
"oooOXoooooooooooooooooooooooooooooooooooooooooooooooooooooooooooooOoooooOoooooooooooooooooooooooooooooOooooooooooooooooooooooooo",
"ooooooooOoooooooooooooOooooOoooooooooooooooooooOooooooooooooooooooooooooooooooooooooooooooOoXOoooooooooooooooooooooOooooooooOooo",
"oooooooooooooooooOoooooooooooooooooooooooooooooooooooooooooooooooooooooooooooooooooooooooooooooooooooooooooooooooooooooooooooooo",
"oooooooooooooooooooooooooooooooooooooOooooooooooooooooooooooooooooooooooooooooooooOooooooooooooooooooooooooOoXoooooooooooooooooo",
"oooooooooXoooooooooooooooooooooooooooooOoooooooooooooOooooooooooooooooooooooooOXooooooooooOooooooooooooooooooOoooooooooooooooooo",
"oooOoooooooooooOoooooooooooooooooooooooooooooooooooooooooooOoooooooXooooooooooooooooXOooooooooooooooooooooooooooooooooOoooooooOo",
"oooooooooooooooooooooooooOoooooooooooooooooooooooooooooooooooooooooOoooooOooooooooooooooooooooooooooooooooooooooooooooooooooooXo",
"oooooooooooooooooooooooooooooooooooooooooooooooooooooooooooooooooooooooooooooooooooooooooooooooooooooooOoooooooooooXoooooooooooo",
"oooooooooooooooooooooooo...ooo..oooooooooooooX..oo.ooooooooooooooooooo.ooo...oooooooooooo.oo.oooXXoooooooooooooooooooooooooooooo",
"ooooooooooooooooooooooXO<221122<ooooooooooo$12121212%oooooooooooooooo,2211222<Ooooooooo.o,4cmNBBNmck,OXooooooooooooooooOoooooooo",
"oooooooooOooXooooooooo1BJLLLLLLZ$oooooooooo$VLLLLLLLC%ooooooooooooo.1GLLLLLLKcooooooo.%lVJLPPPPPPPPLJZz*oooooooooooooooooooooooo",
"ooOooooOoooooooooooo<MKPPPPPPPPSOooooooooooo,FPPPPPPPnooooooooooooo*SPPPPPPPB$ooooooo2ALPPPPPPPPPPPPPPPDkooooooooooooooooooooooo",
"oooooooooooooooooo,nJPPPPPPPPPPS$ooooooooooo.2JPPPPPPLzoooooooooooONPPPPPPPS*ooooooolJPPPPPPPPPPPPPPPPPPLvOooooooooooooooooooooo",
"oooooXoooooooooo*bHPPPPPPPPPPPPA$ooooooooooooolLPPPPPPH1.ooooooooocPPPPPPPH2.ooooo.4JPPPPPPPPPPPPPPPPPPPPLxooooooooooooooooooooo",
"oooooooooooooo$cFPPPPPPPPPPPPPPS$oooooooooooooonPPPPPPPS*oooooooo4JPPPPPPLz.ooooo.*DPPPPPPPLAnxcnZLPPPPPPPG,oooooooooooooooooooo",
"oooooooooooooX3LPPPPPPGmJPPPPPPSOooooooooooooooONPPPPPPPNOoooooo,FPPPPPPPnooooooo.cPPPPPPPJlO...XO4HPPPPPPPcXooooooooooooooOoooo",
"oooooooooooooX3LPPPPHn,%GPPPPPPA$ooooooooooooooo*APPPPPPPcoooo.%CPPPPPPPC$ooooooo@APPPPPPLc..ooooo.xPPPPPPPCOooooooooooooooooooo",
"oooooooooooooo4LPPHn,o.%GPPPPPPS$oOoooooooooooooo<FPPPPPPJ3oooonPPPPPPPF*oooooooX<JPPPPPPD%Xoooooo.,JPPPPPPS$ooooooooooooooooooo",
"oooooOooooooo.4LHn,..o.*GPPPPPPSOooooooooooooooooo4JPPPPPPF,.olLPPPPPPJ2ooooooooX%zcvnmNVcooooooooo*HPPPPPPD$oooooooooOooooooooo",
"oooooooooooooX1n,o.oooo%GPPPPPPA$ooooooooooooooooooxLPPPPPPV$1HPPPPPPLzooooooooooo....ooOoooooooooo1KPPPPPPZOooooooooooooooooooo",
"ooooooooooooooooooooooo*GPPPPPPS$oooooooooOooooooooOmPPPPPPPMAPPPPPPPnOoooooooooooooooooooooooooooomPPPPPPPnoooooooooooooooooooo",
"oooooooooooooooooooooo.%GPPPPPPS$Xoooooooooooooooooo$VPPPPPPPPPPPPPPZ%oooooooOooooooooooooooooooo.lKPPPPPPK1ooooooooooooooooOooo",
"oooooooooooooooooooooo.*GPPPPPPAOoooooooooooooooooooo*DPPPPPPPPPPPPF,oooooooooooooooooooooooooooolJPPPPPPPNooooooooooooooooooooo",
"ooooooooooooooooooooooo*GPPPPPPS$ooooooooooooooooooooo1HPPPPPPPPPPJ4XooooooooooooooooooooooooooOcKPPPPPPPD*ooooooooooooooooooooo",
"ooOooooooOooooooooooooo*GPPPPPPS$oooooooooooooooooOooo.zPPPPPPPPPPn.oooooooooooooooooooooooooX*BLPPPPPPPG2oooooooOoooooooooooooo",
"ooooooooooooooooooooooo*GPPPPPPAOXoooooooooooooooooooo$NPPPPPPPPPPZ%ooooooooooooooooooooooooOkFPPPPPPPPF2.oooooooooooooooooooooo",
"oooooooooooooooooooooo.*GPPPPPPS$ooooooooooooooooooooOnPPPPPPPPPPPPmOooooooooooooooooooooo.*mLPPPPPPPPZ<oooooooooooooooooooooooo",
"ooooooooooooooooooooooo%GPPPPPPS$oooooooooooooooooooolKPPPPPPPPPPPPLzooooooooooooooooooooo4DPPPPPPPPLn%ooooooooooooooOoooooooooo",
"ooooooooooooooooooooooo%GPPPPPPA$ooooooooooooooooooo2JPPPPPPLLPPPPPPJ2ooooooooooooooooo.$vKPPPPPPPPS4OoooooooooooooooooooooooooO",
"oooooooooooooooooooooo.*GPPPPPPS$oooooooooooooooooo*DPPPPPPLzMPPPPPPPF*ooooooooooooooo.,VPPPPPPPPJn*.ooooooooooooooooooooooooooo",
"ooooooooooooooooooooooo%GPPPPPPSOooooooooooooooooo$CPPPPPPPno%APPPPPPPV$oooooooooooooo1DPPPPPPPPZ2o.oooooooooooooooooooooooooooo",
"ooooooooooooooooooooooo*GPPPPPPA$ooooooooooooooooOmPPPPPPPV$o.1GPPPPPPPvooooooooooooo3GPPPPPPPJc$.oooooooooooooooooooooooooooooo",
"Ooooooooooooooooooooooo%GPPPPPPS$ooooooooooooooooxLPPPPPPF,.oookKPPPPPPKkooooooooooo4JPPPPPPPD2ooooooooooooooooooooooooooooooooo",
"oooooooooooooooooooooo.*GPPPPPPS$Xooooooooooooo.3JPPPPPPJ4.ooooobPPPPPPPG1oooooooo.2HPPPPPPPC*ooooooooooooooooooooooooooooooooOo",
"oooooooOooooooooooooooo*GPPPPPPAOooooooooooooo.<FPPPPPPLcooooooo$VPPPPPPPA%ooooooo,FPPPPPPPV$.oo.oo.o.ooo.oooooooooooooooooooooo",
"oooooooooooooo.o.......%GPPPPPPSO.......oooooo%APPPPPPPNOoooooooo*DPPPPPPPMOooooo$VPPPPPPPG1%***************$ooooooooooooooooooo",
"oooooooooooooo3vvvvvvvvnJPPPPPPHnvvvvvvb4OoooONPPPPPPPA*oooooooooo2JPPPPPPLxooooolLPPPPPPPLGGGHGHGGGGGGGGGHHxXoooooooooooooooooo",
"oooooooooooooomPPPPPPPPPPPPPPPPPPPPPPPPPVoooOcLPPPPPPH1oooooooooooozLPPPPPPJ2oooomPPPPPPPPPPPPPPPPPPPPPPPPPPvooooooooOoooooooooo",
"ooooooooooooo.mPPPPPPPPPPPPPPPPPPPPPPPPPVooXkKPPPPPPLloooooooooooooomPPPPPPPF,ooomPPPPPPPPPPPPPPPPPPPPPPPPPPvXoooooOoooooooooooo",
"oooooooooooooomPPPPPPPPPPPPPPPPPPPPPPPPPVoo1HPPPPPPPnOoooooooooooooo%ZPPPPPPPV$oomPPPPPPPPPPPPPPPPPPPPPPPPPPv.oooooooooooooooooo",
"oooooooooooooonPLPLLLLPLLPLLLLPLLPLLPLLPNo*APPLLPLPV%ooooooooooooooo.<FLPLLPLLbO.mLPLLLLPLPLLLPLPLLLPLPLLLPPcooooooooooooooooooo",
"oooooOoooooooo,44444444444444444444444441o%34444443*Xooooooooooooooooo<44444442Oo,44444444444444444444444444,ooooooooooOoooooooo",
"oooooooooooooooXooo.oo..ooo.oo..oo.......oo...XX..Xoooooooooooooooooooo.o....ooooo..ooX...o....ooo....oo...oXooooooooooooooooooo",
"oooooooooooooooooooooooooooooooooooooOooooooooooooooooooooooooooooooooooooooooooooooOooooooooooooooooooooooooooooooooooooooooooo",
"oooooooooooooooooooooooooooooooooooooooooooooooooooooooooooooooooooooooooooooooooooooooooooooooooooooooooooooooooooooooooooooooo",
"oooooooooooooooooooooooooooooooooooooooooooooooooooooooooooooooooooooooooo#######OoooooooOoooooooooooooooooooooooooooooooooooooo",
"ooooooooooooooooooooOoooooooooooooooooooooooooooooooooooooooooooooooooooo#eruurre=oooooooooooooooooooooooooooooooooooooooooooooo",
"ooooooooooooooooooooooooooooooooooooooooooooooooooooooooOoooooooooooooooo#rsssssi=ooooooooooooooooooooooooOoooooooooooooooooOooo",
"ooooooooooooooooooooooooooooooooooooooooooooooooooooooooooooooooooooooooX#rsaaasi=oooooooooooooooooooooooooooooooooooooooooooooo",
"oooooooooooooooooooOooooooooooooOoooooooooooooooooooooooooooooooooooooooo#ypppipu=oooooooOoooooooooooooooooooooooooooooooooooooo",
"oooooooooooooooOoooooooooooooooooooooooooooooooooooooooooooooooooooooooooO=-----=@oooooooooooooooooooooooooooooooooooooooooooooo",
"oooOooooooooooooooooooooooooooooooooooooooooooooooooooooooooooooooooooooooooooooooooooooooooooooooooooooooooooooooooooOooooooooo",
"ooooooooooooooooooooooXXXXXoXoXXoooooooooooooooooooooXXXXXXooooooooooooooooooXoooooooooooooooooooooooXooXoooooooooooooooooooOooo",
"OooooooooooooooooooXo#=;ddd>-+OXooooooooooooooooXo#=;dfdd>=#oooooooooooooo#######Ooooooo@+####@ooooo#->dd:=@oooooooooooooooooooo",
"oooooooooooooooooX#>8tiaaaappiw5=Oooooooooooooo#f9yippaaapiyqg#oooooooooo#wruyyue&Xoooo#wuuuuu8ooo-7yppaappeh#oooooooooooooooooo",
"ooooooooooooooooo>epsasaaaaaassai7#oooooooooX#jyassssaaaaaaaaarj#oooooooX#rsssssi=Xoooo@yssssst@Ohissaaaaaasse;ooooooooooooooooo",
"ooooooooooooooo@5psaaaasassasaaaaae=oooooooo=wssaaasssssssaaaaaaw=ooooooo#rsaaaai&ooooo@tsaaaay#5asaasaaaaaaasr=oooooooooooooooo",
"ooooooooooooooOjpaaaaasu089wpsaaaasy=oooooo=ysaaaaapuq88qyaaaaaasu=Xooooo#rsaaaai=XooooOwsaaaau5paaiyyiaaaaaaas0@oooooooooOooooo",
"oooooooooooooodpaaaaap8+OooO:eaaaassqOoooo#esaaasaih#oooo#hiaaaassw#ooooo#uaaaaai=Xoooo@esaaaapiayf&##=5iaaaaaap;Xoooooooooooooo",
"ooooooooooooo#tsaaaaa8OXooo.o=rsaaasp;Xooojaaaspsi>XooooooodiaaaaaagXoooo#usaaaai=XooooOwaaaaaast=XXXXoogpaaaaaajXoooooooooooooo",
"ooooooooooooXdaaaaaai=Xooooooo8piiiirhooo#yaapsas7oooooooooo9saaaase#oooo#rsaaaai=Xoooo@wssaaaai;ooooooo@eaaaaaa9ooooooooooooooo",
"oooooooOooooo9saasaa0ooooooooo+--==###ooX>aaaaaai-XooooooooX>paaaaap-Xooo#rsaaaai=oooooOwsaaaas9Ooooooooo6aaaaaaqooooooooooooooo",
"oooooooooooo#esaapas5ooooooooooXoooXooooXjaaaaaay#oooooooooo=iaaaaaafXooo#uaaaaai=ooooo@esaaaaa5XoooooooXfaaaaaawOoooooooooooooo",
"oooooooooooo#raaaaasfXooooooooooooooooooO9aaaaaswOoooooooooo#tsaaassjXooo#uaaaaai&oooooOwsaapaa>XoooooooX>aaaaaswooooooooOoooooo",
"oooooooooooX=isaaapadXooooooooooooooooooOqaaaaaaqooooooooooo#eaaaaaa7oooo#usapsai=ooooo@wsaaaap:XoooooooXdaaaaaawOoooooooooooooo",
"oooooooooooo=iaaaaaadXooooooooooooooooooOqsaaaasqOoooooooooo@taaaaaa7Xooo#usaaaai=oooooOesaaaaa:Xoooooooo>paaaaswOoooooooooooooo",
"oooooooooooo#isaaaaa5XXoooooooooooooooooo9saaaaawOoooooooooo#yaaaaaajoooo#rsaaaai=Xoooo@wsaaaap>XoooooooXdaaaaaawooooooooooooooo",
"oooooooooooo#eaaaaaa5XoooooooooOoooXooooo5aaaaaay#oooooooooo=iaaaaaadXooo#usaaaai=XooooOwaaaaaa:XoooooooX>aaaaaawOoooooooooooooo",
"ooOoooooooooo9ssaaaawOoooooooo=998765dOoo:paapsap:XooooooooXfaaapssi&oooo#usaaaai=Xoooo@essaaaa:XoooooooXdaaaaasqOoooooooooooooo",
"ooooooooooooXdaaaaaap;ooooooOo5ssssss9Ooo#esaaaaa9Ooooooooo@waaaaas0Ooooo#usaaaai=XooooOwspaaap>ooooooooo>paaaaawOoooooooooooooo",
"ooooooooooooX#esaaaas0@oooooo=uaaaaapdXooXfsaaaaapfoXoooooOjaaaaaai;Xoooo#usaaaai=Xoooo@esaaaap:XooOooooXdpaaaasqOoooooooooooooo",
"oooooooooooooodpaaaaaa0-@O@@>tsaaaaa0Ooooo@0aaaaaaij=Ooo#-9aaaaaaa5Oooooo#rsaaaai=oooooOesaaaap>Xoooooooo>aaaaaawOoooooooooOoooo",
"ooooooooOoooooO5asspaasie0qypsaaaaat=oooooO+eaaaaaaaiwqqtpaaaaaaa8@oooooo#raaaaai=Xoooo@esaaaap>XoooooooXdaaaaasqOooooooooooooOo",
"oooooooooooooooOjissasaassssaaaaaaq=XooooooX=9psaaaaaassaaaaaasij@ooooooo#raaaaai=XooooOwaaaaap>Xoooooooo>paaasswooooooooooooooo",
"ooooooooooooooooo;qpssasaaasssapth#Xooooooooo@depasaaaaaaaaaap0;Ooooooooo#isaassi=ooooo@esaasaa>XoooooooXdassssswOoooooooooooooo",
"oooooooooooooooooXO;jwyipppire8d#XXoooooooooooo@>6wrippppiyqh-OXoOooooooX#9eeeweq#oooooO8eeeeew-Xoooooooo;wewewe6Ooooooooooooooo",
"oooooooooooooooooooooO#=-;;=##XXooooooooooooooooXoO#=-;;-=#oXXooooooooooooO@@@O@@OooooooO@O@O@@ooooooooooo@O@O@@Oooooooooooooooo",
"oooooooOooooooooooooooooXooXoooooooooooooooooooooooXooXOXOXXoooooooooooooooooooooooooooooooooooooooooooooooooooooooooooooooooooo",
"ooooooooooooooooooooooooooooooooooooooooooooooooooooooooooooooooooooooooooooooooooooooooooooooOooooooooooooooooooooooooooooooooo",
"ooooooooooooooooooooooooooooooooooooXOooooooOooooooooooooooooooooooooooooooooooooooooooooooooooooooooooooooooooooooooooooooooooo",
"ooooooooooooooooooooooooooooooooooooooooooooooOoooooooooooooOXooooooooooooooooooooooooooooooooooooOooooooooooooooooooooooooooooo",
"ooooooooooooOooooOooooooooooooooooooooooooooooXooooooooooooooooooooooooooooooooooooooooooooooooooooooooooooooooooOoooooooooooooo",
"ooooooooooOoooooooooooooooooooooooooooOoooooooooooooOooooOoooooooooooooooooooooooooooooooooooooooooooooooooooooooooooooooooooooo",
"ooooooooooooooooooooooooooooooooooooooooooooooooooooooooooooooooooooooooooooooooooooooooooooooooooooOoooooooooooooooooooOooooooo",
"oooooooooooooooooooooooooooooooooooooooooooooooooooooooooooooooooooooOoooooOooooooooooooooooooOoooooooooooooooooooooooooooOooooo",
"ooooooooooooooooooooooooooOoooooooooooooooooooooooooooooooooOoooooooooooooooooooooooooooooXOoooooooooooooooooooooooooooooooooooo",
"oOooooooooooooooooooooooooooooooooOoooooooooooooooooooooooooooooooooooooooooooooooooOooooooooooooooooooooooooooooooooooooooooooo",
"ooooooooooooooooooooooooooooooooooXooooooOoooooOoooooooooooooooooooooooooooooooooooooooooooooooooooooooooooooOoooooooooooooooooo",
"oooooooooooooooXooooooooooooooooooooooooooOXooooooOoooooOooooooooooooooooooooooooooOoooooooooooooooooooooooooooooooooooooooooooo",
"oooooooooooOooooooooooooooooooooooOooooooooooooooooooooooooooooooooooooooooooooooooooooooooooooooooooooooooooooooooooooooooooooo",
"oooooooooooooooooooooooooooOoooooooooooooooooooooooooooooooooooooooooooooooooooooooooooooooooooooooooooooooooooooooooooooooooooo",
"oooOooXoooooooooooooooooooooooooooooooooooooooooooooooooooooooooooooooooOoooooooXooooooooooOoooooooooooooooooooooooooooooooOoooo",
"oooooooooooooooooooooooooooooooooooooXooooooooooooooooooooooooooooooooooooOooooooooooooooooooXoooooooooooooooooooooooooooooooooo",
"oooOoooooooooooooooooooooooooooooooooOooooooooooooooooooooooooooooooooooooooooooooooooooooooooooOooooooooooooooOooooooooOooooooo",
"ooooooooooooooooooooooooOoooooooooooooooooooooooXOooooXOooooXoooOooooooooooooooooooooooooooooooooooooooooooooooooooooooooooooooo",
"oooooooooooOoooooooOooooooooooooooooooooooooooOoooooooooooooOooooooooooooooooooooooooOooooooOoooooooooooOoooooooooOooooooooooooo",
"oooXooooooooooOooooooooOoooooooooooooOoooooooooooooooooooooooooooooooooooooooooooooooooooooooooooooooooooooooooooooooooooooooooo",
"ooooOooooOoooooooooooooooooooooooooooooooooooooooooooooooooOooooooooOooooooooooooooooooooooooooooooooooooooooooooooooooooooooooo",
" oooooooooooooooOooooooooooooooOoooooooooooooooooooooooooooooooooooooooooooooooooooooOoooooooooOooooooooooooooooOooooooooooooooo",
" ooooooooooooooooooooooooooooooooooooooooooooooXooooooooooooooooooooooooooooooooooooooooooooooooooooooooooooooooooooooooooooooo ",
"  oooooooooooooooooooooooooooooooooooooooooOoooOoOooooooooooXOooooooooooooooooooooooooooooooooooooooooooooooooooooooooooOooooo  ",
"  oooooooooooooooooooooooooooooooooooooooooooooooooooOoooooooooooOooooooooooooOooooooooooooooooooooooOooooOooooooooooooooooooo  ",
"    oooooooOoooXoooooXooooooooooooooOXooooooooooooooooooooooooooooooooooooooooooooXoooooooooooooooooooooooooooooooooooooooooo   ",
"     ooooooooooooooooooooooOoooooooooooooooooooooooooooooooooooooooooOooooooooooooOoooooooOoooooooooooooooooooooooooooooooo     "
};
