/* XPM */
static char *bitcoin16[] = {
/* columns rows colors chars-per-pixel */
"16 16 123 2 ",
"   c #479547",
".  c #479647",
"X  c #459548",
"o  c #47964A",
"O  c #489648",
"+  c #499649",
"@  c #499749",
"#  c #48964A",
"$  c #49964A",
"%  c #49974A",
"&  c #4A974A",
"*  c #4B984B",
"=  c #4C9849",
"-  c #4C984A",
";  c #4C984C",
":  c #4D994D",
">  c #4E994E",
",  c #4F9A4F",
"<  c #559B47",
"1  c #579B46",
"2  c #529A48",
"3  c #539A49",
"4  c #549B49",
"5  c #599C48",
"6  c #5B9D48",
"7  c #5D9E48",
"8  c #519B51",
"9  c #549D54",
"0  c #559E55",
"q  c #579E57",
"w  c #579F57",
"e  c #589F58",
"r  c #599F58",
"t  c #639F45",
"y  c #5AA05A",
"u  c #5CA15C",
"i  c #5DA25D",
"p  c #5FA35F",
"a  c #62A047",
"s  c #65A146",
"d  c #66A146",
"f  c #69A243",
"g  c #6BA243",
"h  c #68A246",
"j  c #6BA346",
"k  c #6DA344",
"l  c #6FA445",
"z  c #70A442",
"x  c #76A642",
"c  c #76A743",
"v  c #72A545",
"b  c #7DA943",
"n  c #7FAA43",
"m  c #78A844",
"M  c #7BA944",
"N  c #5DA260",
"B  c #5FA361",
"V  c #65A766",
"C  c #6BAA6B",
"Z  c #6DAB6D",
"A  c #6EAC6F",
"S  c #73AC69",
"D  c #6FAC71",
"F  c #6FAD72",
"G  c #70AD70",
"H  c #71AE71",
"J  c #71AE74",
"K  c #75B075",
"L  c #7EB57E",
"P  c #9FB53F",
"I  c #9FB63F",
"U  c #A7B93E",
"Y  c #ABBA3E",
"T  c #B1BC3D",
"R  c #B3BD3C",
"E  c #B4BD3C",
"W  c #B7BE3C",
"Q  c #B9BF3C",
"!  c #BCC03B",
"~  c #BEC13B",
"^  c #C3C23A",
"/  c #C2C23B",
"(  c #80AA43",
")  c #81AB43",
"_  c #83AC43",
"`  c #85AC40",
"'  c #85AC42",
"]  c #84AC43",
"[  c #86AC42",
"{  c #89AD42",
"}  c #8CAF41",
"|  c #8EAF41",
" . c #8FB041",
".. c #92B141",
"X. c #93B141",
"o. c #83B264",
"O. c #81B781",
"+. c #83B883",
"@. c #86B986",
"#. c #8EBE8F",
"$. c #92C192",
"%. c #94C194",
"&. c #94C294",
"*. c #97C397",
"=. c #9AC59A",
"-. c #9CC69C",
";. c #9DC79D",
":. c #A2C9A2",
">. c #A4CBA4",
",. c #A8CDA8",
"<. c #ACCFAC",
"1. c #B3D3B3",
"2. c #B4D4B4",
"3. c #B7D6B7",
"4. c #BBD8BB",
"5. c #BFDABF",
"6. c #C3DDC3",
"7. c #CFE3CF",
"8. c #CFE4CF",
"9. c #D4E6D4",
"0. c #D4E7D4",
"q. c #DCEBDC",
"w. c #E4EFE4",
/* pixels */
"& & & & & & & & & & & & & & & & ",
"& & & & & & & & & & & & & & & & ",
"& & & & & & & & & & & @ & & & & ",
"& @ @ > & : ; + * > @ 8 , + & & ",
"@ 9 *.3.q C ,.y -.O.+.2.2.G O & ",
"+ w @.0.p ; :.7.4.e H Z 6.%.  & ",
"& . i 8.i   $.w.1.: u <.>.0 @ & ",
"+ y =.q.&.L 5.C 2.#.1.9.;.K @ & ",
"@ 9 D F A V N X r o.S F J B @ & ",
"& = g x 1 < c v 2 ` t f z k - & ",
"o m E [ b Y ..U X.T ) ^ } / a # ",
"o _ R l M Q ( P I W ] ~ 7 ! j # ",
"% 3 '  .h d | { 6 b s ) 4 n 5 % ",
"& % # $ $ $ $ # % # % # & # % & ",
"& & & & & & & & & & & & & & & & ",
"& & & & & & & & & & & & & & & & "
};
