/* XPM */
static char *bitcoin32[] = {
/* columns rows colors chars-per-pixel */
"32 32 238 2 ",
"   c None",
".  c #459547",
"X  c #479547",
"o  c #479647",
"O  c #479648",
"+  c #44954B",
"@  c #47964A",
"#  c #46964B",
"$  c #489648",
"%  c #499649",
"&  c #499749",
"*  c #48964A",
"=  c #49964A",
"-  c #49974A",
";  c #4A974A",
":  c #4B974A",
">  c #4B974B",
",  c #4E9849",
"<  c #4F9949",
"1  c #4C984A",
"2  c #4E984A",
"3  c #4D994D",
"4  c #4E994E",
"5  c #4E9A4E",
"6  c #4F9A4F",
"7  c #5E9E47",
"8  c #509949",
"9  c #519949",
"0  c #519A49",
"q  c #529A49",
"w  c #539A49",
"e  c #559B49",
"r  c #569B48",
"t  c #579C48",
"y  c #589C48",
"u  c #5A9D48",
"i  c #5B9D48",
"p  c #5D9E48",
"a  c #509B50",
"s  c #519B51",
"d  c #529C52",
"f  c #539C53",
"g  c #549D54",
"h  c #569E56",
"j  c #589F58",
"k  c #629F45",
"l  c #619F47",
"z  c #629F47",
"x  c #59A059",
"c  c #5AA05A",
"v  c #5BA15B",
"b  c #5CA15C",
"n  c #5DA25D",
"m  c #5EA25E",
"M  c #5EA35E",
"N  c #5FA35F",
"B  c #63A047",
"V  c #65A146",
"C  c #64A047",
"Z  c #65A147",
"A  c #66A146",
"S  c #67A246",
"D  c #68A246",
"F  c #6AA246",
"G  c #6BA346",
"H  c #6CA346",
"J  c #6DA445",
"K  c #71A441",
"L  c #71A545",
"P  c #72A545",
"I  c #73A645",
"U  c #74A645",
"Y  c #76A744",
"T  c #78A744",
"R  c #7CA943",
"E  c #7EAA43",
"W  c #7FAA43",
"Q  c #78A844",
"!  c #7CA944",
"~  c #62A562",
"^  c #63A563",
"/  c #64A664",
"(  c #65A665",
")  c #65A765",
"_  c #66A766",
"`  c #67A867",
"'  c #68A868",
"]  c #6AA96A",
"[  c #69A96C",
"{  c #6CAA6C",
"}  c #6DAB6D",
"|  c #6EAC6F",
" . c #70AD70",
".. c #71AD71",
"X. c #73AF73",
"o. c #74AF74",
"O. c #78B178",
"+. c #78B278",
"@. c #7BB37B",
"#. c #7CB47C",
"$. c #7DB47D",
"%. c #7EB57E",
"&. c #9EB53D",
"*. c #9CB43F",
"=. c #9EB53F",
"-. c #9FB53F",
";. c #9FB63F",
":. c #A3B73E",
">. c #A4B73E",
",. c #A5B83E",
"<. c #A6B83E",
"1. c #A7B83E",
"2. c #ABBA3D",
"3. c #A9B93E",
"4. c #AAB93E",
"5. c #ACBA3D",
"6. c #ADBB3D",
"7. c #B1BC3D",
"8. c #B4BD3C",
"9. c #B6BE3C",
"0. c #B8BF3C",
"q. c #B9BF3C",
"w. c #BCC03B",
"e. c #C2C23A",
"r. c #C4C33A",
"t. c #C7C43A",
"y. c #CBC539",
"u. c #C8C43A",
"i. c #CCC639",
"p. c #CDC639",
"a. c #CEC639",
"s. c #DACB37",
"d. c #DCCB37",
"f. c #DDCC37",
"g. c #DECC37",
"h. c #D0C739",
"j. c #D1C739",
"k. c #D1C838",
"l. c #D3C838",
"z. c #D4C938",
"x. c #D6C938",
"c. c #D7C938",
"v. c #D7CA38",
"b. c #E2CE36",
"n. c #E4CE36",
"m. c #E6CF36",
"M. c #E8D035",
"N. c #EAD035",
"B. c #EBD135",
"V. c #ECD135",
"C. c #EFD235",
"Z. c #F1D334",
"A. c #F0D235",
"S. c #F3D434",
"D. c #F4D434",
"F. c #F5D434",
"G. c #81AB43",
"H. c #83AC43",
"J. c #8BAE42",
"K. c #91B141",
"L. c #93B141",
"P. c #96B240",
"I. c #98B340",
"U. c #99B340",
"Y. c #9AB440",
"T. c #9BB440",
"R. c #82B782",
"E. c #83B883",
"W. c #84B984",
"Q. c #86BA86",
"!. c #87BA87",
"~. c #87BA88",
"^. c #88BA88",
"/. c #88BB88",
"(. c #8CBD8C",
"). c #8DBD8D",
"_. c #90BF90",
"`. c #91C091",
"'. c #97C397",
"]. c #98C498",
"[. c #99C499",
"{. c #9CC69C",
"}. c #9DC79D",
"|. c #A1C9A1",
" X c #A8CDA8",
".X c #A9CEA9",
"XX c #AACEAA",
"oX c #ADD0AD",
"OX c #AED0AE",
"+X c #AED1AE",
"@X c #B2D3B2",
"#X c #B4D4B4",
"$X c #B6D5B6",
"%X c #B8D6B8",
"&X c #BBD8BB",
"*X c #BCD8BC",
"=X c #BCD9BC",
"-X c #BDD9BD",
";X c #BED9BE",
":X c #BEDABE",
">X c #BFDABF",
",X c #C8E0C8",
"<X c #C9E0C9",
"1X c #D0E4D0",
"2X c #D3E6D3",
"3X c #D5E7D5",
"4X c #D6E7D6",
"5X c #D6E8D6",
"6X c #D7E8D7",
"7X c #D8E9D8",
"8X c #DBEADB",
"9X c #DCEBDC",
"0X c #DEECDE",
"qX c #DFECDF",
"wX c #E0EDE0",
"eX c #E4F0E4",
"rX c #E5F0E5",
"tX c #E6F0E6",
"yX c #E6F1E6",
"uX c #E7F1E7",
"iX c #E9F2E9",
"pX c #EAF3EA",
"aX c #EBF4EB",
"sX c #ECF4EC",
"dX c #EEF5EE",
"fX c #F0F7F0",
"gX c #F1F7F1",
"hX c #F3F8F3",
"jX c #F4F9F4",
"kX c #F5F9F5",
"lX c #F6FAF6",
"zX c #F8FBF8",
"xX c #F9FBF9",
"cX c #FAFCFA",
"vX c #FBFDFB",
"bX c #FCFDFC",
"nX c #FDFEFD",
"mX c #FFFFFF",
/* pixels */
"  ; ; ; ; ; ; ; ; ; ; ; ; ; ; ; ; ; ; ; ; ; ; ; ; ; ; ; ; ; ;   ",
"; ; ; ; ; ; ; ; ; ; ; ; ; ; ; ; ; ; ; ; ; ; ; ; ; ; ; ; ; ; ; ; ",
"; ; ; ; ; ; ; ; ; ; ; ; ; ; ; ; ; ; ; ; ; ; ; ; ; ; ; ; ; ; ; ; ",
"; ; ; ; ; ; ; ; ; ; ; ; ; ; ; ; ; ; ; ; ; ; ; ; ; ; ; ; ; ; ; ; ",
"; ; ; ; ; ; ; ; ; ; ; ; ; ; ; ; ; ; ; ; ; ; ; ; ; ; ; ; ; ; ; ; ",
"; ; ; ; ; ; ; ; ; ; ; ; ; ; ; ; ; ; ; ; ; ; ; ; ; ; ; ; ; ; ; ; ",
"; ; ; ; ; ; ; ; ; ; ; ; ; ; ; ; ; ; ; ; ; ; ; ; ; ; ; ; ; ; ; ; ",
"; ; ; ; & $ $ $ ; ; ; % $ % ; ; & $ $ ; ; $ $ ; & o & ; ; ; ; ; ",
"; ; ; % 4 #..X{.f & 6 `.XX{ $ & d ]. X/ % }  X>X%X_.h & ; ; ; ; ",
"; ; % ~ >XuXmXyXv % & E.kX3Xb % }.mX:Xs ..aXgX;X2XnX#X3 ; ; ; ; ",
"; ; $ +.oX$.pXrXv % ; & '.vX$XQ.jX4Xm X #.-X/.o ` gXeXx % ; ; ; ",
"; ; ; 3 & b iXrXv % ; & 4 OXcXjXiX .$ ; ; ; $ 5 |.mX:X5 ; ; ; ; ",
"; ; ; ; % M iXrXv % ; ; o ).bXmX5Xj % ; ; $ ~ &XcX<X~ % ; ; ; ; ",
"; ; ; ; $ m iXrXc $ ; $  .iXqX=XnX+X3 & % O.0XdX{.g X ; ; ; ; ; ",
"; ; ; 4 f ' pXuX( f > N 6XhX@.g ,XvX`.X o.pXfX(.n m n 4 ; ; ; ; ",
"; ; $ R.7X9XxXzX9X1XX.*XvX[.& $ _ wXsXo.@XmXlXrXtXyX8X` $ ; ; ; ",
"; ; % ^ /./.Q.Q./.W.) E.%.a & ; % ] ~.[ | !.Q.!.!.^.E.h & ; ; ; ",
"; ; ; % X X X X X X % X o & ; ; ; O K &.k . X X X X X & ; ; ; ; ",
"; ; ; ; * * = * = ; ; = @ = * * - = Y >.Z * * * * * * * ; ; ; ; ",
"; ; ; ; H =.5.Y.A ; - C P.2.,.W 9 * P Y.z 0 L.H.Y 1.:.J ; ; ; ; ",
"; ; * Q b.u.I.h.c.V G s.z.U.7.N.<.: -.F.R y g.b.6.3.M.x.p = ; ; ",
"; ; : 0.C.P + l E i 4.D.G.+ 0 p.m.l *.S.! t d.s.i * 8.A.L * ; ; ",
"; ; 2 r.B.D @ 1 w < 9.Z.I # 1 e.V.S *.S.! t f.i.8 * 4.A.P * ; ; ",
"; ; - =.D.U.u *.l.I J.S.3.i T n.y.w =.F.R t g.a.9 * 2.Z.I * ; ; ",
"; ; - y 4.l.y.k.;.q 9 T.j.y.j.w.F @ K.s.U e t.q.8 = *.v.H * ; ; ",
"; ; ; - : i B y ; - - ; t B 7 , = ; q u < : y r : ; w u 2 ; ; ; ",
"; ; ; ; ; - = - ; ; ; ; - = = ; ; ; - - ; ; - - ; ; - - ; ; ; ; ",
"; ; ; ; ; ; ; ; ; ; ; ; ; ; ; ; ; ; ; ; ; ; ; ; ; ; ; ; ; ; ; ; ",
"; ; ; ; ; ; ; ; ; ; ; ; ; ; ; ; ; ; ; ; ; ; ; ; ; ; ; ; ; ; ; ; ",
"; ; ; ; ; ; ; ; ; ; ; ; ; ; ; ; ; ; ; ; ; ; ; ; ; ; ; ; ; ; ; ; ",
"; ; ; ; ; ; ; ; ; ; ; ; ; ; ; ; ; ; ; ; ; ; ; ; ; ; ; ; ; ; ; ; ",
"  ; ; ; ; ; ; ; ; ; ; ; ; ; ; ; ; ; ; ; ; ; ; ; ; ; ; ; ; ; ;   "
};
