/* XPM */
static char *bitcoin64[] = {
/* columns rows colors chars-per-pixel */
"64 64 67 1 ",
"  c None",
". c #469546",
"X c #47964A",
"o c #4A974A",
"O c #4D984C",
"+ c #5E9E47",
"@ c #549B49",
"# c #5B9D48",
"$ c #559D55",
"% c #589F58",
"& c #609F47",
"* c #5CA25C",
"= c #65A147",
"- c #6DA445",
"; c #73A645",
": c #7CA944",
"> c #63A663",
", c #67A867",
"< c #6AAA6A",
"1 c #72AE72",
"2 c #76B076",
"3 c #7CB47C",
"4 c #9DB53F",
"5 c #A3B73E",
"6 c #A6B83E",
"7 c #A9B93E",
"8 c #B3BD3C",
"9 c #B9BF3C",
"0 c #BDC03B",
"q c #C4C33A",
"w c #CCC639",
"e c #DDCC37",
"r c #D0C739",
"t c #D5C938",
"y c #D8CA38",
"u c #E2CE36",
"i c #ECD135",
"p c #F5D434",
"a c #F8D533",
"s c #85AC42",
"d c #8AAE42",
"f c #94B240",
"g c #9AB440",
"h c #82B782",
"j c #86B986",
"k c #8CBD8C",
"l c #93C193",
"z c #9AC59A",
"x c #9FC89F",
"c c #A5CCA5",
"v c #ABCFAB",
"b c #AED0AE",
"n c #B6D5B6",
"m c #B9D7B9",
"M c #BEDABE",
"N c #C5DEC5",
"B c #C8DFC8",
"V c #CCE2CC",
"C c #D2E5D2",
"Z c #D7E8D7",
"A c #DDEBDD",
"S c #E1EEE1",
"D c #E6F0E6",
"F c #EDF5ED",
"G c #F0F7F0",
"H c #F5F9F5",
"J c #FFFFFF",
/* pixels */
"  oooooooooooooooooOoooooooooO.ooooooooooooooooooooooooooooOoo  ",
" oooooooooooooooooooooooooooooOoooOoooooOooooooooOooooooooooooo ",
"oooooooooooOooooooooooooooOooooooooooooooooooooooooooooooooooooo",
"ooooooOoooooooooooooooooooooooooooooooooooooooooooooOooooooooooo",
"ooooooooooooooOooooooooooooooooooooooooooooooooooooooooooooooooo",
"oooooooooooooooooooooooooooooOooooooooOooooooooooooOoooooooooooo",
"oooooooooOooooooooooooooooooooooooooooooooooooooooooooooooooooOo",
"oooOooooooooooooOoooooooooooooooooooooooooooOooooooooooooooooooo",
"oooOoooooooooooOooooooooooooooooOooooooooooooooooooooooooooooooo",
"oooooooooooooooooooooooOoooooooooooooooooooooooooOoooooooOoooooo",
"ooooooooooooooooooOooooooooOoooooooooooOooooOooooooooooooooooooo",
"oooooooooooooooooooooooooooooooooooooooooooOooooooooooooooooooOo",
"oooooOoooooooooooooooooooooooooooooooooooooooooooooooooooooOoooo",
"ooooooooooooooooooooooooooooooooooooooooooooOooooooooooOoooooooo",
"OoooooooooOooooooooooooooOoooooooooOoOOooooooooooooooooooooooooo",
"oooooooooooo.o.ooooooooo..ooooooooo....oooooo.....oooooooooooooo",
"oooooooooo.$>,<>oooooO,<,,$ooooooo$<,<>Ooooo%1hjh1*o.ooooooooooo",
"oooooooooO1MFFGC$ooooOvGGGvoooooo$MGFFzooo*cAHJJJHSv>.oooooooooo",
"oooooooO<mGJJJJA$ooooo*CJJHkooooocJJJN$o.*VJJJJHJJJJC,ooooooOooo",
"ooooOo.lGJJAHJJA%ooooo.<SJJF1.oojHJJZ>.oobJJJCk2jCJJJnoooooooooo",
"ooooooonJZl<DJJA$ooooooo3GJJZ*.<DJJF2.oo*ZJJF,...<GJJZ$ooooooooo",
"oooooooll%.*DJJA$oooooooolJJJm>VJJJloooo$13h3O.o.>FJJA$oooOooooo",
"ooooooOO.oo*DJJA%ooooooooovJJJAJJJvOoooooo...ooooxJJJmOooooooooo",
"ooooooooooo*DJJA$oooooooo.$NJJJJJB$ooooooooooooOzHJJF1oooooooooo",
"oOooooooooo*DJJA$ooooooooo.jJJJJJk.oooooooooo.>mJJJFkoooooooOooo",
"ooooooooooo*DJJA%oooooooo.,ZJJJJJA,oooooooooOhAJJJA3ooXooooooooo",
"ooooooooooo*DJJA$oooooooo$NJJHVJJJN$.ooooo.$vHJJGn*ooooooooooooo",
"ooooooooooo*DJJA$oooooooOvJJJv$MJJJvOooooo*NJJJZ3ooooooOoooooooo",
"ooooooooooo*DJJA%ooooooolJJJV$.>ZJJHkoooo*VJJJn*.o.ooooXoooooooo",
"oooOoooOOOo>DJJA%OOOOoo3FJJS,.o.3FJJF<.oOmJJJN,*******@Xoooooooo",
"ooooooOcVNBVHJJHVNVN2.,SJJG3oooookJJJC*.3HJJJFDDDDDDDS1oooooooOo",
"oooooo$VJJJJJJJJJJJJk%VJJJxooooooObJJJm$hJJJJJJJJJJJJJ3.oooooooo",
"ooooooOznnnnnnnnnnnn<2nnnx$oooooOo%cnmn>,nnnmnnnnnnnnn,.oooooooo",
"ooooooooooooooooooooOOooo.ooooooooooo..oooo..ooooooooooooooooooo",
"ooooooooooooooOoooooooooooOoooooooooO###@ooooooooooooooooooooooo",
"ooooooooooooooXooooooooOooXooooooooo#wuugoooooooooooooooooooooOo",
"ooOoooooooooXOoooooooooXooooXOoooooo#rii4ooooOoXooXOXooooooooooo",
"oooooooooooo.oXooooooooooo.oX.ooooooO&&=@oooooXXoo.oXXoOoooOoooo",
"oooooooOX.@=;-&@ooooOoXX@#---+OoooooO@##@ooO###@oo&-;#oXoooooooo",
"oooooOoX#5riiiuwd@ooXX@dquiiiuqd@ooo#weefoo#qees&9uiie7#oooooooo",
"ooooooo-wpaiwripp9#XX#9papywtpap9@oo#uaa6XX#yap9wiyippp9@ooooooo",
"ooOooo@qppy;@@siaagXO7ppif#O#fipp5oo#epa5XO@tppi0-#;wppi-.oooooo",
"ooooXX;pppgXooOf75sO=upp9XooXOqape#o&epp5oo@tppy#XOXdppisXOooooo",
"ooooX.gppp;XoXooo.XXsippf.ooXXgppp;.#epa5Xo@tpp9OoXX-ippdXoooOXo",
"ooooOX6api-XooooXXXXspppsooooXfpppsX#epa6Xo@tpp8oooo-ippd.oooooo",
"ooooXXgppp;ooooO@@O.:pppfooooX5ppi;X#epp5XX#tpp8ooX.-ippdooooooO",
"oOOoXX:pppgoooX5ww7@&upp0OoXX@qppr#X#epa6Xo@tpa8ooOX-ippdXoooooo",
"ooXooX@qapu:@@diapgoogppig#@&5pppfXX#upp5Xo@tpa8oOXX-ippdXoooooo",
"ooooooo-wpaittppp8@Xo@7ppperuppi5@oo#uaa5oo@yap8oooX-iapdooooOoo",
"oooooooo#gwuiue0s@.oooOs9yuiut9;OXoX#qttfoo@9ty4oooo-wtt:ooooooo",
"oooooooooo@#==#OooooooXoo#===@ooooooo@@#@.oO@@#@oXooO@@@Oooooooo",
"oooooooOooo.ooXXoOooooOooooooooooooooooooooooooooooooooooooooooo",
"ooooooooooooooooooooooooooooooooooooooooooooooooOooooooooooooooo",
"ooooooooOoooOoooooooOooooooooooooooooooooooooooooooooooooooooooo",
"ooooooooooooooooooooooooooooooooooooooooOooooooooooooooooooooooo",
"oOoooooooooooooooooooooooooooooooooooooooooXooooooooooOooooooOoo",
"ooooooooooooooOooooooooooooOoooooooooooooooooooooooooooOoooooooo",
"oooooooooooooooooooooOoooooooooooooooooooooooooooooooooooooooooo",
"ooooooooooooooooooooooooooooooooooooooOoooOooooOoooooooooooooooo",
"ooOoooooooooooooooooooooooooooooooXOooooooooooooOooooooooOooOooo",
"oooooooooooooooooooooooooooooOoooooooooooooooooooooooooooooooooo",
"oooooooooooooooooOoooooooooooooooooooooooooooOoooooooooooooooooo",
" ooooOooooooOoooooooooooOoooooooooOoooooooooooooooooooooOoooooo ",
"  oOoooooooooooooooooooooooooooooooooooooooooooooooooooooooooo  "
};
